<?xml version="1.0" encoding="UTF-8" standalone="no"?>
<svg
   width="24"
   height="24"
   viewBox="0 0 24 24"
   fill="none"
   version="1.1"
   id="svg4"
   sodipodi:docname="Home.svg"
   inkscape:version="1.1.2 (0a00cf5339, 2022-02-04, custom)"
   xmlns:inkscape="http://www.inkscape.org/namespaces/inkscape"
   xmlns:sodipodi="http://sodipodi.sourceforge.net/DTD/sodipodi-0.dtd"
   xmlns="http://www.w3.org/2000/svg"
   xmlns:svg="http://www.w3.org/2000/svg">
  <defs
     id="defs8" />
  <sodipodi:namedview
     id="namedview6"
     pagecolor="#ffffff"
     bordercolor="#666666"
     borderopacity="1.0"
     inkscape:pageshadow="2"
     inkscape:pageopacity="0.0"
     inkscape:pagecheckerboard="0"
     showgrid="false"
     inkscape:zoom="33.666667"
     inkscape:cx="11.985149"
     inkscape:cy="12.014851"
     inkscape:window-width="1920"
     inkscape:window-height="1001"
     inkscape:window-x="-9"
     inkscape:window-y="-9"
     inkscape:window-maximized="1"
     inkscape:current-layer="svg4" />
  <path
     d="M3.15261 10.7614L2.48504 10.0168L2.48504 10.0168L3.15261 10.7614ZM20.8473 10.7614L21.5149 10.0168L21.5149 10.0168L20.8473 10.7614ZM12.3338 3.12815L13.0013 2.3836L13.0013 2.3836L12.3338 3.12815ZM11.6662 3.12815L10.9986 2.3836L10.9986 2.3836L11.6662 3.12815ZM9.99694 21.0123H8.99694V22.0123H9.99694V21.0123ZM14.003 21.0123V22.0123H15.003V21.0123H14.003ZM3.98639 11.1337C3.98639 11.2757 3.92595 11.4111 3.82017 11.5059L2.48504 10.0168C2.16771 10.3014 1.98639 10.7075 1.98639 11.1337H3.98639ZM3.98639 20.5123V11.1337H1.98639V20.5123H3.98639ZM3.48639 20.0123C3.76253 20.0123 3.98639 20.2362 3.98639 20.5123H1.98639C1.98639 21.3408 2.65796 22.0123 3.48639 22.0123V20.0123ZM20.5136 20.0123H3.48639V22.0123H20.5136V20.0123ZM20.0136 20.5123C20.0136 20.2362 20.2374 20.0123 20.5136 20.0123V22.0123C21.342 22.0123 22.0136 21.3408 22.0136 20.5123H20.0136ZM20.0136 11.1337V20.5123H22.0136V11.1337H20.0136ZM20.1798 11.5059C20.074 11.4111 20.0136 11.2757 20.0136 11.1337H22.0136C22.0136 10.7075 21.8322 10.3014 21.5149 10.0168L20.1798 11.5059ZM11.6662 3.8727L20.1798 11.5059L21.5149 10.0168L13.0013 2.3836L11.6662 3.8727ZM12.3338 3.8727C12.1438 4.043 11.8561 4.043 11.6662 3.8727L13.0013 2.3836C12.4315 1.8727 11.5684 1.8727 10.9986 2.3836L12.3338 3.8727ZM3.82017 11.5059L12.3338 3.8727L10.9986 2.3836L2.48504 10.0168L3.82017 11.5059ZM10.9969 16.0048C10.9969 15.4508 11.446 15.0018 12 15.0018V13.0018C10.3414 13.0018 8.99694 14.3463 8.99694 16.0048H10.9969ZM10.9969 21.0123V16.0048H8.99694V21.0123H10.9969ZM14.003 20.0123H9.99694V22.0123H14.003V20.0123ZM13.003 16.0048V21.0123H15.003V16.0048H13.003ZM12 15.0018C12.5539 15.0018 13.003 15.4508 13.003 16.0048H15.003C15.003 14.3463 13.6585 13.0018 12 13.0018V15.0018Z"
     fill="black"
     id="path2" />
</svg>
