<?xml version="1.0" encoding="UTF-8" standalone="no"?>
<svg
   width="24"
   height="24"
   viewBox="0 0 24 24"
   fill="none"
   version="1.1"
   id="svg4"
   sodipodi:docname="reels.svg"
   inkscape:version="1.1.2 (0a00cf5339, 2022-02-04, custom)"
   xmlns:inkscape="http://www.inkscape.org/namespaces/inkscape"
   xmlns:sodipodi="http://sodipodi.sourceforge.net/DTD/sodipodi-0.dtd"
   xmlns="http://www.w3.org/2000/svg"
   xmlns:svg="http://www.w3.org/2000/svg">
  <defs
     id="defs8" />
  <sodipodi:namedview
     id="namedview6"
     pagecolor="#ffffff"
     bordercolor="#666666"
     borderopacity="1.0"
     inkscape:pageshadow="2"
     inkscape:pageopacity="0.0"
     inkscape:pagecheckerboard="0"
     showgrid="false"
     inkscape:zoom="33.666667"
     inkscape:cx="11.985149"
     inkscape:cy="12.014851"
     inkscape:window-width="1920"
     inkscape:window-height="1001"
     inkscape:window-x="-9"
     inkscape:window-y="-9"
     inkscape:window-maximized="1"
     inkscape:current-layer="svg4" />
  <path
     fill-rule="evenodd"
     clip-rule="evenodd"
     d="M2 8C2 4.68629 4.68629 2 8 2H16C19.3137 2 22 4.68629 22 8V16C22 19.3137 19.3137 22 16 22H8C4.68629 22 2 19.3137 2 16V8ZM4.12602 7H8.80049L7.1805 4.08402C5.68964 4.39443 4.50315 5.53475 4.12602 7ZM13.8005 7H11.0884L9.42174 4H12.1338L13.8005 7ZM16.0884 7H19.874C19.4299 5.27477 17.8638 4 16 4H14.4217L16.0884 7ZM20 9H4V16C4 18.2091 5.79086 20 8 20H16C18.2091 20 20 18.2091 20 16V9ZM14.5878 14.0944C14.782 13.9778 14.782 13.6964 14.5878 13.5799L10.4709 11.1097C10.2709 10.9897 10.0165 11.1338 10.0165 11.367V16.3073C10.0165 16.5404 10.2709 16.6845 10.4709 16.5645L14.5878 14.0944Z"
     fill="black"
     id="path2" />
</svg>
