<?xml version="1.0" encoding="UTF-8" standalone="no"?>
<svg
   width="24"
   height="24"
   viewBox="0 0 24 24"
   fill="none"
   version="1.1"
   id="svg4"
   sodipodi:docname="search.svg"
   inkscape:version="1.1.2 (0a00cf5339, 2022-02-04, custom)"
   xmlns:inkscape="http://www.inkscape.org/namespaces/inkscape"
   xmlns:sodipodi="http://sodipodi.sourceforge.net/DTD/sodipodi-0.dtd"
   xmlns="http://www.w3.org/2000/svg"
   xmlns:svg="http://www.w3.org/2000/svg">
  <defs
     id="defs8" />
  <sodipodi:namedview
     id="namedview6"
     pagecolor="#ffffff"
     bordercolor="#666666"
     borderopacity="1.0"
     inkscape:pageshadow="2"
     inkscape:pageopacity="0.0"
     inkscape:pagecheckerboard="0"
     showgrid="false"
     inkscape:zoom="33.666667"
     inkscape:cx="11.985149"
     inkscape:cy="12.014851"
     inkscape:window-width="1920"
     inkscape:window-height="1001"
     inkscape:window-x="-9"
     inkscape:window-y="-9"
     inkscape:window-maximized="1"
     inkscape:current-layer="svg4" />
  <path
     fill-rule="evenodd"
     clip-rule="evenodd"
     d="M3.99997 11C3.99997 7.13401 7.13398 4 11 4C14.866 4 18 7.13401 18 11C18 14.866 14.866 18 11 18C7.13398 18 3.99997 14.866 3.99997 11ZM11 2C6.02941 2 1.99997 6.02944 1.99997 11C1.99997 15.9706 6.02941 20 11 20C13.3868 20 15.5567 19.0708 17.1676 17.5545C17.2035 17.6084 17.2453 17.6595 17.2929 17.7071L21.2929 21.7071C21.6834 22.0976 22.3166 22.0976 22.7071 21.7071C23.0976 21.3166 23.0976 20.6834 22.7071 20.2929L18.7071 16.2929C18.6218 16.2076 18.5249 16.1409 18.4214 16.0929C19.4172 14.6446 20 12.8904 20 11C20 6.02944 15.9705 2 11 2Z"
     fill="black"
     id="path2" />
</svg>
