<?xml version="1.0" encoding="UTF-8" standalone="no"?>
<svg
   width="24"
   height="24"
   viewBox="0 0 24 24"
   fill="none"
   version="1.1"
   id="svg4"
   sodipodi:docname="shop.svg"
   inkscape:version="1.1.2 (0a00cf5339, 2022-02-04, custom)"
   xmlns:inkscape="http://www.inkscape.org/namespaces/inkscape"
   xmlns:sodipodi="http://sodipodi.sourceforge.net/DTD/sodipodi-0.dtd"
   xmlns="http://www.w3.org/2000/svg"
   xmlns:svg="http://www.w3.org/2000/svg">
  <defs
     id="defs8" />
  <sodipodi:namedview
     id="namedview6"
     pagecolor="#ffffff"
     bordercolor="#666666"
     borderopacity="1.0"
     inkscape:pageshadow="2"
     inkscape:pageopacity="0.0"
     inkscape:pagecheckerboard="0"
     showgrid="false"
     inkscape:zoom="33.666667"
     inkscape:cx="11.985149"
     inkscape:cy="12.014851"
     inkscape:window-width="1920"
     inkscape:window-height="1001"
     inkscape:window-x="-9"
     inkscape:window-y="-9"
     inkscape:window-maximized="1"
     inkscape:current-layer="svg4" />
  <path
     fill-rule="evenodd"
     clip-rule="evenodd"
     d="M7.62376 4.06159C7.5998 4.11403 7.57676 4.16693 7.55467 4.22028C7.36385 4.68095 7.24611 5.16773 7.20494 5.66304H4.49984C3.45967 5.66304 2.59313 6.46037 2.50675 7.49695L1.74128 16.6826C1.49836 19.5977 3.7988 22.0978 6.72401 22.0978H17.276C20.2012 22.0978 22.5016 19.5977 22.2587 16.6826L21.4932 7.49695C21.4069 6.46037 20.5403 5.66304 19.5002 5.66304H16.7951C16.7539 5.16773 16.6362 4.68095 16.4453 4.22028C16.4232 4.16693 16.4002 4.11403 16.3762 4.06159C16.138 3.54026 15.8083 3.06525 15.4023 2.65928C14.9555 2.21249 14.4251 1.85807 13.8413 1.61626C13.2575 1.37446 12.6319 1.25 12 1.25C11.3681 1.25 10.7425 1.37446 10.1587 1.61626C9.57491 1.85807 9.04449 2.21249 8.59769 2.65928C8.19172 3.06525 7.86202 3.54026 7.62376 4.06159ZM15.0379 5.66304H8.96207C8.99689 5.39766 9.06641 5.13741 9.16927 4.88907C9.32325 4.51733 9.54894 4.17956 9.83346 3.89505C10.118 3.61053 10.4557 3.38484 10.8275 3.23087C11.1992 3.07689 11.5976 2.99764 12 2.99764C12.4024 2.99764 12.8008 3.07689 13.1725 3.23087C13.5443 3.38484 13.882 3.61053 14.1665 3.89505C14.4511 4.17956 14.6768 4.51733 14.8307 4.88907C14.9336 5.13741 15.0031 5.39766 15.0379 5.66304ZM19.5002 7.66304L4.49984 7.66304L3.73437 16.8487C3.58862 18.5977 4.96889 20.0978 6.72401 20.0978H17.276C19.0311 20.0978 20.4114 18.5977 20.2656 16.8487L19.5002 7.66304ZM9.83346 11.8368C9.55304 11.5564 9.32977 11.2243 9.17598 10.8589L9.16927 10.8428C9.12716 10.7412 9.09064 10.6375 9.0598 10.5323C9.02928 10.4282 8.98645 10.3273 8.93291 10.2335C8.74829 9.91 8.43632 9.67029 8.06222 9.67029C7.57963 9.67029 7.18037 10.0647 7.26754 10.5393C7.29753 10.7027 7.33599 10.8645 7.38276 11.024C7.43119 11.1892 7.48854 11.352 7.55467 11.5116L7.5749 11.5597C7.81607 12.1245 8.1632 12.6381 8.59769 13.0726C9.04449 13.5194 9.57491 13.8738 10.1587 14.1156C10.7425 14.3574 11.3681 14.4819 12 14.4819C12.6319 14.4819 13.2575 14.3574 13.8413 14.1156C14.4251 13.8738 14.9555 13.5194 15.4023 13.0726C15.8368 12.6381 16.1839 12.1245 16.4251 11.5597L16.4453 11.5116C16.5115 11.352 16.5688 11.1892 16.6172 11.024C16.664 10.8645 16.7025 10.7027 16.7325 10.5393C16.8196 10.0647 16.4204 9.67029 15.9378 9.67029C15.5637 9.67029 15.2517 9.91 15.0671 10.2335C15.0136 10.3273 14.9707 10.4282 14.9402 10.5323C14.9094 10.6375 14.8728 10.7412 14.8307 10.8428L14.824 10.8589C14.6702 11.2243 14.447 11.5564 14.1665 11.8368C13.882 12.1214 13.5443 12.347 13.1725 12.501C12.8008 12.655 12.4024 12.7342 12 12.7342C11.5976 12.7342 11.1992 12.655 10.8275 12.501C10.4557 12.347 10.118 12.1214 9.83346 11.8368Z"
     fill="black"
     id="path2" />
</svg>
